<svg class="main-svg" xmlns="http://www.w3.org/2000/svg" xmlns:xlink="http://www.w3.org/1999/xlink" width="800" height="500" style="" viewBox="0 0 800 500"><rect x="0" y="0" width="800" height="500" style="fill: rgb(255, 255, 255); fill-opacity: 1;"/><defs id="defs-0b6524"><g class="clips"><clipPath id="clip0b6524xyplot" class="plotclip"><rect width="616" height="320"/></clipPath><clipPath class="axesclip" id="clip0b6524x"><rect x="80" y="0" width="616" height="500"/></clipPath><clipPath class="axesclip" id="clip0b6524y"><rect x="0" y="100" width="800" height="320"/></clipPath><clipPath class="axesclip" id="clip0b6524xy"><rect x="80" y="100" width="616" height="320"/></clipPath></g><g class="gradients"><linearGradient x1="0" x2="0" y1="1" y2="0" id="g0b6524-cbcoloraxis"><stop offset="0%" stop-color="rgb(13, 8, 135)" stop-opacity="1"/><stop offset="11.111111%" stop-color="rgb(70, 3, 159)" stop-opacity="1"/><stop offset="22.222222%" stop-color="rgb(114, 1, 168)" stop-opacity="1"/><stop offset="33.333333%" stop-color="rgb(156, 23, 158)" stop-opacity="1"/><stop offset="44.444444%" stop-color="rgb(189, 55, 134)" stop-opacity="1"/><stop offset="55.555556%" stop-color="rgb(216, 87, 107)" stop-opacity="1"/><stop offset="66.666667%" stop-color="rgb(237, 121, 83)" stop-opacity="1"/><stop offset="77.777778%" stop-color="rgb(251, 159, 58)" stop-opacity="1"/><stop offset="88.888889%" stop-color="rgb(253, 202, 38)" stop-opacity="1"/><stop offset="100%" stop-color="rgb(240, 249, 33)" stop-opacity="1"/></linearGradient></g><g class="patterns"/></defs><g class="bglayer"><rect class="bg" x="80" y="100" width="616" height="320" style="fill: rgb(229, 236, 246); fill-opacity: 1; stroke-width: 0;"/></g><g class="layer-below"><g class="imagelayer"/><g class="shapelayer"/></g><g class="cartesianlayer"><g class="subplot xy"><g class="layer-subplot"><g class="shapelayer"/><g class="imagelayer"/></g><g class="minor-gridlayer"><g class="x"/><g class="y"/></g><g class="gridlayer"><g class="x"><path class="xgrid crisp" transform="translate(114.55,0)" d="M0,100v320" style="stroke: rgb(255, 255, 255); stroke-opacity: 1; stroke-width: 1px;"/><path class="xgrid crisp" transform="translate(192.68,0)" d="M0,100v320" style="stroke: rgb(255, 255, 255); stroke-opacity: 1; stroke-width: 1px;"/><path class="xgrid crisp" transform="translate(270.81,0)" d="M0,100v320" style="stroke: rgb(255, 255, 255); stroke-opacity: 1; stroke-width: 1px;"/><path class="xgrid crisp" transform="translate(348.94,0)" d="M0,100v320" style="stroke: rgb(255, 255, 255); stroke-opacity: 1; stroke-width: 1px;"/><path class="xgrid crisp" transform="translate(427.06,0)" d="M0,100v320" style="stroke: rgb(255, 255, 255); stroke-opacity: 1; stroke-width: 1px;"/><path class="xgrid crisp" transform="translate(505.19,0)" d="M0,100v320" style="stroke: rgb(255, 255, 255); stroke-opacity: 1; stroke-width: 1px;"/><path class="xgrid crisp" transform="translate(583.3199999999999,0)" d="M0,100v320" style="stroke: rgb(255, 255, 255); stroke-opacity: 1; stroke-width: 1px;"/><path class="xgrid crisp" transform="translate(661.45,0)" d="M0,100v320" style="stroke: rgb(255, 255, 255); stroke-opacity: 1; stroke-width: 1px;"/></g><g class="y"><path class="ygrid crisp" transform="translate(0,386.6)" d="M80,0h616" style="stroke: rgb(255, 255, 255); stroke-opacity: 1; stroke-width: 1px;"/><path class="ygrid crisp" transform="translate(0,333.23)" d="M80,0h616" style="stroke: rgb(255, 255, 255); stroke-opacity: 1; stroke-width: 1px;"/><path class="ygrid crisp" transform="translate(0,279.85)" d="M80,0h616" style="stroke: rgb(255, 255, 255); stroke-opacity: 1; stroke-width: 1px;"/><path class="ygrid crisp" transform="translate(0,226.48000000000002)" d="M80,0h616" style="stroke: rgb(255, 255, 255); stroke-opacity: 1; stroke-width: 1px;"/><path class="ygrid crisp" transform="translate(0,173.11)" d="M80,0h616" style="stroke: rgb(255, 255, 255); stroke-opacity: 1; stroke-width: 1px;"/><path class="ygrid crisp" transform="translate(0,119.74)" d="M80,0h616" style="stroke: rgb(255, 255, 255); stroke-opacity: 1; stroke-width: 1px;"/></g></g><g class="zerolinelayer"/><path class="xlines-below"/><path class="ylines-below"/><g class="overlines-below"/><g class="xaxislayer-below"/><g class="yaxislayer-below"/><g class="overaxes-below"/><g class="plot" transform="translate(80,100)" clip-path="url(#clip0b6524xyplot)"><g class="scatterlayer mlayer"><g class="trace scatter tracebcd5c5" style="stroke-miterlimit: 2; opacity: 1;"><g class="fills"/><g class="errorbars"/><g class="lines"/><g class="points"><path class="point" transform="translate(308,246.64)" d="M3,0A3,3 0 1,1 0,-3A3,3 0 0,1 3,0Z" style="opacity: 1; stroke-width: 0px; fill: rgb(145, 17, 161); fill-opacity: 1;"/><path class="point" transform="translate(542.39,135.83)" d="M3,0A3,3 0 1,1 0,-3A3,3 0 0,1 3,0Z" style="opacity: 1; stroke-width: 0px; fill: rgb(125, 7, 165); fill-opacity: 1;"/><path class="point" transform="translate(581.45,113.27)" d="M3,0A3,3 0 1,1 0,-3A3,3 0 0,1 3,0Z" style="opacity: 1; stroke-width: 0px; fill: rgb(97, 2, 164); fill-opacity: 1;"/><path class="point" transform="translate(542.39,129.68)" d="M3,0A3,3 0 1,1 0,-3A3,3 0 0,1 3,0Z" style="opacity: 1; stroke-width: 0px; fill: rgb(89, 2, 163); fill-opacity: 1;"/><path class="point" transform="translate(542.39,115.81)" d="M3,0A3,3 0 1,1 0,-3A3,3 0 0,1 3,0Z" style="opacity: 1; stroke-width: 0px; fill: rgb(48, 5, 150); fill-opacity: 1;"/><path class="point" transform="translate(347.06,233.55)" d="M3,0A3,3 0 1,1 0,-3A3,3 0 0,1 3,0Z" style="opacity: 1; stroke-width: 0px; fill: rgb(191, 58, 132); fill-opacity: 1;"/><path class="point" transform="translate(542.39,161.31)" d="M3,0A3,3 0 1,1 0,-3A3,3 0 0,1 3,0Z" style="opacity: 1; stroke-width: 0px; fill: rgb(128, 8, 165); fill-opacity: 1;"/><path class="point" transform="translate(581.45,44.17)" d="M3,0A3,3 0 1,1 0,-3A3,3 0 0,1 3,0Z" style="opacity: 1; stroke-width: 0px; fill: rgb(30, 7, 142); fill-opacity: 1;"/><path class="point" transform="translate(503.32,156.64)" d="M3,0A3,3 0 1,1 0,-3A3,3 0 0,1 3,0Z" style="opacity: 1; stroke-width: 0px; fill: rgb(133, 11, 164); fill-opacity: 1;"/><path class="point" transform="translate(581.45,89.39)" d="M3,0A3,3 0 1,1 0,-3A3,3 0 0,1 3,0Z" style="opacity: 1; stroke-width: 0px; fill: rgb(79, 3, 161); fill-opacity: 1;"/><path class="point" transform="translate(542.39,124.05)" d="M3,0A3,3 0 1,1 0,-3A3,3 0 0,1 3,0Z" style="opacity: 1; stroke-width: 0px; fill: rgb(105, 1, 166); fill-opacity: 1;"/><path class="point" transform="translate(308,270.6)" d="M3,0A3,3 0 1,1 0,-3A3,3 0 0,1 3,0Z" style="opacity: 1; stroke-width: 0px; fill: rgb(218, 90, 105); fill-opacity: 1;"/><path class="point" transform="translate(112.68,254.6)" d="M3,0A3,3 0 1,1 0,-3A3,3 0 0,1 3,0Z" style="opacity: 1; stroke-width: 0px; fill: rgb(138, 14, 162); fill-opacity: 1;"/><path class="point" transform="translate(112.68,238.86)" d="M3,0A3,3 0 1,1 0,-3A3,3 0 0,1 3,0Z" style="opacity: 1; stroke-width: 0px; fill: rgb(204, 73, 119); fill-opacity: 1;"/><path class="point" transform="translate(308,260.21)" d="M3,0A3,3 0 1,1 0,-3A3,3 0 0,1 3,0Z" style="opacity: 1; stroke-width: 0px; fill: rgb(217, 89, 105); fill-opacity: 1;"/><path class="point" transform="translate(542.39,113.15)" d="M3,0A3,3 0 1,1 0,-3A3,3 0 0,1 3,0Z" style="opacity: 1; stroke-width: 0px; fill: rgb(50, 5, 151); fill-opacity: 1;"/><path class="point" transform="translate(581.45,115.81)" d="M3,0A3,3 0 1,1 0,-3A3,3 0 0,1 3,0Z" style="opacity: 1; stroke-width: 0px; fill: rgb(71, 3, 159); fill-opacity: 1;"/><path class="point" transform="translate(581.45,105.14)" d="M3,0A3,3 0 1,1 0,-3A3,3 0 0,1 3,0Z" style="opacity: 1; stroke-width: 0px; fill: rgb(47, 5, 149); fill-opacity: 1;"/><path class="point" transform="translate(542.39,161.94)" d="M3,0A3,3 0 1,1 0,-3A3,3 0 0,1 3,0Z" style="opacity: 1; stroke-width: 0px; fill: rgb(78, 3, 161); fill-opacity: 1;"/><path class="point" transform="translate(542.39,118.48)" d="M3,0A3,3 0 1,1 0,-3A3,3 0 0,1 3,0Z" style="opacity: 1; stroke-width: 0px; fill: rgb(89, 2, 163); fill-opacity: 1;"/><path class="point" transform="translate(386.13,221.49)" d="M3,0A3,3 0 1,1 0,-3A3,3 0 0,1 3,0Z" style="opacity: 1; stroke-width: 0px; fill: rgb(153, 21, 159); fill-opacity: 1;"/><path class="point" transform="translate(503.32,158.51)" d="M3,0A3,3 0 1,1 0,-3A3,3 0 0,1 3,0Z" style="opacity: 1; stroke-width: 0px; fill: rgb(122, 5, 166); fill-opacity: 1;"/><path class="point" transform="translate(308,266.05)" d="M3,0A3,3 0 1,1 0,-3A3,3 0 0,1 3,0Z" style="opacity: 1; stroke-width: 0px; fill: rgb(234, 116, 87); fill-opacity: 1;"/><path class="point" transform="translate(581.45,110.48)" d="M3,0A3,3 0 1,1 0,-3A3,3 0 0,1 3,0Z" style="opacity: 1; stroke-width: 0px; fill: rgb(90, 2, 163); fill-opacity: 1;"/><path class="point" transform="translate(581.45,83.52)" d="M3,0A3,3 0 1,1 0,-3A3,3 0 0,1 3,0Z" style="opacity: 1; stroke-width: 0px; fill: rgb(38, 6, 145); fill-opacity: 1;"/><path class="point" transform="translate(347.06,243.9)" d="M3,0A3,3 0 1,1 0,-3A3,3 0 0,1 3,0Z" style="opacity: 1; stroke-width: 0px; fill: rgb(200, 68, 123); fill-opacity: 1;"/><path class="point" transform="translate(542.39,137.66)" d="M3,0A3,3 0 1,1 0,-3A3,3 0 0,1 3,0Z" style="opacity: 1; stroke-width: 0px; fill: rgb(122, 5, 166); fill-opacity: 1;"/><path class="point" transform="translate(112.68,278.62)" d="M3,0A3,3 0 1,1 0,-3A3,3 0 0,1 3,0Z" style="opacity: 1; stroke-width: 0px; fill: rgb(238, 123, 82); fill-opacity: 1;"/><path class="point" transform="translate(581.45,118.8)" d="M3,0A3,3 0 1,1 0,-3A3,3 0 0,1 3,0Z" style="opacity: 1; stroke-width: 0px; fill: rgb(80, 3, 161); fill-opacity: 1;"/><path class="point" transform="translate(112.68,278.91)" d="M3,0A3,3 0 1,1 0,-3A3,3 0 0,1 3,0Z" style="opacity: 1; stroke-width: 0px; fill: rgb(224, 100, 98); fill-opacity: 1;"/><path class="point" transform="translate(308,228.21)" d="M3,0A3,3 0 1,1 0,-3A3,3 0 0,1 3,0Z" style="opacity: 1; stroke-width: 0px; fill: rgb(120, 4, 167); fill-opacity: 1;"/><path class="point" transform="translate(542.39,142.52)" d="M3,0A3,3 0 1,1 0,-3A3,3 0 0,1 3,0Z" style="opacity: 1; stroke-width: 0px; fill: rgb(86, 2, 162); fill-opacity: 1;"/><path class="point" transform="translate(308,233.89)" d="M3,0A3,3 0 1,1 0,-3A3,3 0 0,1 3,0Z" style="opacity: 1; stroke-width: 0px; fill: rgb(149, 19, 160); fill-opacity: 1;"/><path class="point" transform="translate(581.45,73.66)" d="M3,0A3,3 0 1,1 0,-3A3,3 0 0,1 3,0Z" style="opacity: 1; stroke-width: 0px; fill: rgb(49, 5, 150); fill-opacity: 1;"/><path class="point" transform="translate(386.13,198.56)" d="M3,0A3,3 0 1,1 0,-3A3,3 0 0,1 3,0Z" style="opacity: 1; stroke-width: 0px; fill: rgb(55, 4, 153); fill-opacity: 1;"/><path class="point" transform="translate(308,251.95)" d="M3,0A3,3 0 1,1 0,-3A3,3 0 0,1 3,0Z" style="opacity: 1; stroke-width: 0px; fill: rgb(181, 47, 140); fill-opacity: 1;"/><path class="point" transform="translate(503.32,158.56)" d="M3,0A3,3 0 1,1 0,-3A3,3 0 0,1 3,0Z" style="opacity: 1; stroke-width: 0px; fill: rgb(140, 14, 162); fill-opacity: 1;"/><path class="point" transform="translate(581.45,116.07)" d="M3,0A3,3 0 1,1 0,-3A3,3 0 0,1 3,0Z" style="opacity: 1; stroke-width: 0px; fill: rgb(130, 10, 164); fill-opacity: 1;"/><path class="point" transform="translate(542.39,100.06)" d="M3,0A3,3 0 1,1 0,-3A3,3 0 0,1 3,0Z" style="opacity: 1; stroke-width: 0px; fill: rgb(92, 2, 164); fill-opacity: 1;"/><path class="point" transform="translate(542.39,139.84)" d="M3,0A3,3 0 1,1 0,-3A3,3 0 0,1 3,0Z" style="opacity: 1; stroke-width: 0px; fill: rgb(132, 10, 164); fill-opacity: 1;"/><path class="point" transform="translate(542.39,118.48)" d="M3,0A3,3 0 1,1 0,-3A3,3 0 0,1 3,0Z" style="opacity: 1; stroke-width: 0px; fill: rgb(84, 2, 162); fill-opacity: 1;"/><path class="point" transform="translate(542.39,137.17)" d="M3,0A3,3 0 1,1 0,-3A3,3 0 0,1 3,0Z" style="opacity: 1; stroke-width: 0px; fill: rgb(69, 3, 158); fill-opacity: 1;"/><path class="point" transform="translate(308,214.57)" d="M3,0A3,3 0 1,1 0,-3A3,3 0 0,1 3,0Z" style="opacity: 1; stroke-width: 0px; fill: rgb(86, 2, 162); fill-opacity: 1;"/><path class="point" transform="translate(386.13,219.89)" d="M3,0A3,3 0 1,1 0,-3A3,3 0 0,1 3,0Z" style="opacity: 1; stroke-width: 0px; fill: rgb(158, 25, 156); fill-opacity: 1;"/><path class="point" transform="translate(542.39,145.18)" d="M3,0A3,3 0 1,1 0,-3A3,3 0 0,1 3,0Z" style="opacity: 1; stroke-width: 0px; fill: rgb(109, 1, 167); fill-opacity: 1;"/><path class="point" transform="translate(542.39,155.84)" d="M3,0A3,3 0 1,1 0,-3A3,3 0 0,1 3,0Z" style="opacity: 1; stroke-width: 0px; fill: rgb(195, 62, 128); fill-opacity: 1;"/><path class="point" transform="translate(542.39,129.16)" d="M3,0A3,3 0 1,1 0,-3A3,3 0 0,1 3,0Z" style="opacity: 1; stroke-width: 0px; fill: rgb(138, 14, 162); fill-opacity: 1;"/><path class="point" transform="translate(386.13,233.76)" d="M3,0A3,3 0 1,1 0,-3A3,3 0 0,1 3,0Z" style="opacity: 1; stroke-width: 0px; fill: rgb(190, 56, 133); fill-opacity: 1;"/><path class="point" transform="translate(542.39,145.42)" d="M3,0A3,3 0 1,1 0,-3A3,3 0 0,1 3,0Z" style="opacity: 1; stroke-width: 0px; fill: rgb(99, 2, 165); fill-opacity: 1;"/><path class="point" transform="translate(581.45,73.22)" d="M3,0A3,3 0 1,1 0,-3A3,3 0 0,1 3,0Z" style="opacity: 1; stroke-width: 0px; fill: rgb(54, 4, 152); fill-opacity: 1;"/><path class="point" transform="translate(581.45,83.8)" d="M3,0A3,3 0 1,1 0,-3A3,3 0 0,1 3,0Z" style="opacity: 1; stroke-width: 0px; fill: rgb(81, 3, 161); fill-opacity: 1;"/><path class="point" transform="translate(347.06,236.51)" d="M3,0A3,3 0 1,1 0,-3A3,3 0 0,1 3,0Z" style="opacity: 1; stroke-width: 0px; fill: rgb(180, 46, 141); fill-opacity: 1;"/><path class="point" transform="translate(347.06,247.94)" d="M3,0A3,3 0 1,1 0,-3A3,3 0 0,1 3,0Z" style="opacity: 1; stroke-width: 0px; fill: rgb(211, 81, 112); fill-opacity: 1;"/><path class="point" transform="translate(347.06,211.88)" d="M3,0A3,3 0 1,1 0,-3A3,3 0 0,1 3,0Z" style="opacity: 1; stroke-width: 0px; fill: rgb(122, 5, 166); fill-opacity: 1;"/><path class="point" transform="translate(34.55,289.33)" d="M3,0A3,3 0 1,1 0,-3A3,3 0 0,1 3,0Z" style="opacity: 1; stroke-width: 0px; fill: rgb(206, 75, 117); fill-opacity: 1;"/><path class="point" transform="translate(542.39,126.5)" d="M3,0A3,3 0 1,1 0,-3A3,3 0 0,1 3,0Z" style="opacity: 1; stroke-width: 0px; fill: rgb(127, 8, 165); fill-opacity: 1;"/><path class="point" transform="translate(386.13,59.77)" d="M3,0A3,3 0 1,1 0,-3A3,3 0 0,1 3,0Z" style="opacity: 1; stroke-width: 0px; fill: rgb(18, 8, 137); fill-opacity: 1;"/><path class="point" transform="translate(581.45,105.13)" d="M3,0A3,3 0 1,1 0,-3A3,3 0 0,1 3,0Z" style="opacity: 1; stroke-width: 0px; fill: rgb(105, 1, 166); fill-opacity: 1;"/><path class="point" transform="translate(112.68,291.95)" d="M3,0A3,3 0 1,1 0,-3A3,3 0 0,1 3,0Z" style="opacity: 1; stroke-width: 0px; fill: rgb(245, 144, 68); fill-opacity: 1;"/><path class="point" transform="translate(542.39,149.07)" d="M3,0A3,3 0 1,1 0,-3A3,3 0 0,1 3,0Z" style="opacity: 1; stroke-width: 0px; fill: rgb(95, 2, 164); fill-opacity: 1;"/><path class="point" transform="translate(581.45,91.81)" d="M3,0A3,3 0 1,1 0,-3A3,3 0 0,1 3,0Z" style="opacity: 1; stroke-width: 0px; fill: rgb(74, 3, 160); fill-opacity: 1;"/><path class="point" transform="translate(308,269.25)" d="M3,0A3,3 0 1,1 0,-3A3,3 0 0,1 3,0Z" style="opacity: 1; stroke-width: 0px; fill: rgb(250, 156, 60); fill-opacity: 1;"/><path class="point" transform="translate(542.39,134.51)" d="M3,0A3,3 0 1,1 0,-3A3,3 0 0,1 3,0Z" style="opacity: 1; stroke-width: 0px; fill: rgb(129, 9, 165); fill-opacity: 1;"/><path class="point" transform="translate(542.39,127.16)" d="M3,0A3,3 0 1,1 0,-3A3,3 0 0,1 3,0Z" style="opacity: 1; stroke-width: 0px; fill: rgb(88, 2, 163); fill-opacity: 1;"/><path class="point" transform="translate(581.45,110.49)" d="M3,0A3,3 0 1,1 0,-3A3,3 0 0,1 3,0Z" style="opacity: 1; stroke-width: 0px; fill: rgb(87, 2, 162); fill-opacity: 1;"/><path class="point" transform="translate(503.32,146.39)" d="M3,0A3,3 0 1,1 0,-3A3,3 0 0,1 3,0Z" style="opacity: 1; stroke-width: 0px; fill: rgb(54, 4, 152); fill-opacity: 1;"/><path class="point" transform="translate(542.39,150.51)" d="M3,0A3,3 0 1,1 0,-3A3,3 0 0,1 3,0Z" style="opacity: 1; stroke-width: 0px; fill: rgb(135, 12, 163); fill-opacity: 1;"/><path class="point" transform="translate(112.68,273.79)" d="M3,0A3,3 0 1,1 0,-3A3,3 0 0,1 3,0Z" style="opacity: 1; stroke-width: 0px; fill: rgb(191, 57, 132); fill-opacity: 1;"/><path class="point" transform="translate(542.39,126.48)" d="M3,0A3,3 0 1,1 0,-3A3,3 0 0,1 3,0Z" style="opacity: 1; stroke-width: 0px; fill: rgb(64, 3, 157); fill-opacity: 1;"/><path class="point" transform="translate(308,255.91)" d="M3,0A3,3 0 1,1 0,-3A3,3 0 0,1 3,0Z" style="opacity: 1; stroke-width: 0px; fill: rgb(174, 40, 145); fill-opacity: 1;"/><path class="point" transform="translate(542.39,142.51)" d="M3,0A3,3 0 1,1 0,-3A3,3 0 0,1 3,0Z" style="opacity: 1; stroke-width: 0px; fill: rgb(155, 22, 158); fill-opacity: 1;"/><path class="point" transform="translate(581.45,123.83)" d="M3,0A3,3 0 1,1 0,-3A3,3 0 0,1 3,0Z" style="opacity: 1; stroke-width: 0px; fill: rgb(93, 2, 164); fill-opacity: 1;"/><path class="point" transform="translate(425.19,203.9)" d="M3,0A3,3 0 1,1 0,-3A3,3 0 0,1 3,0Z" style="opacity: 1; stroke-width: 0px; fill: rgb(115, 2, 168); fill-opacity: 1;"/><path class="point" transform="translate(542.39,128.1)" d="M3,0A3,3 0 1,1 0,-3A3,3 0 0,1 3,0Z" style="opacity: 1; stroke-width: 0px; fill: rgb(90, 2, 163); fill-opacity: 1;"/><path class="point" transform="translate(581.45,86.47)" d="M3,0A3,3 0 1,1 0,-3A3,3 0 0,1 3,0Z" style="opacity: 1; stroke-width: 0px; fill: rgb(45, 5, 148); fill-opacity: 1;"/><path class="point" transform="translate(581.45,57.24)" d="M3,0A3,3 0 1,1 0,-3A3,3 0 0,1 3,0Z" style="opacity: 1; stroke-width: 0px; fill: rgb(27, 7, 141); fill-opacity: 1;"/><path class="point" transform="translate(308,265.26)" d="M3,0A3,3 0 1,1 0,-3A3,3 0 0,1 3,0Z" style="opacity: 1; stroke-width: 0px; fill: rgb(190, 56, 133); fill-opacity: 1;"/><path class="point" transform="translate(542.39,162.42)" d="M3,0A3,3 0 1,1 0,-3A3,3 0 0,1 3,0Z" style="opacity: 1; stroke-width: 0px; fill: rgb(130, 9, 164); fill-opacity: 1;"/><path class="point" transform="translate(581.45,98.47)" d="M3,0A3,3 0 1,1 0,-3A3,3 0 0,1 3,0Z" style="opacity: 1; stroke-width: 0px; fill: rgb(107, 1, 167); fill-opacity: 1;"/><path class="point" transform="translate(542.39,153.72)" d="M3,0A3,3 0 1,1 0,-3A3,3 0 0,1 3,0Z" style="opacity: 1; stroke-width: 0px; fill: rgb(102, 2, 166); fill-opacity: 1;"/><path class="point" transform="translate(542.39,150.55)" d="M3,0A3,3 0 1,1 0,-3A3,3 0 0,1 3,0Z" style="opacity: 1; stroke-width: 0px; fill: rgb(140, 14, 162); fill-opacity: 1;"/><path class="point" transform="translate(542.39,145.19)" d="M3,0A3,3 0 1,1 0,-3A3,3 0 0,1 3,0Z" style="opacity: 1; stroke-width: 0px; fill: rgb(79, 3, 161); fill-opacity: 1;"/><path class="point" transform="translate(73.61,283.4)" d="M3,0A3,3 0 1,1 0,-3A3,3 0 0,1 3,0Z" style="opacity: 1; stroke-width: 0px; fill: rgb(219, 91, 104); fill-opacity: 1;"/><path class="point" transform="translate(581.45,79.79)" d="M3,0A3,3 0 1,1 0,-3A3,3 0 0,1 3,0Z" style="opacity: 1; stroke-width: 0px; fill: rgb(28, 7, 141); fill-opacity: 1;"/><path class="point" transform="translate(503.32,183.83)" d="M3,0A3,3 0 1,1 0,-3A3,3 0 0,1 3,0Z" style="opacity: 1; stroke-width: 0px; fill: rgb(77, 3, 160); fill-opacity: 1;"/><path class="point" transform="translate(503.32,157.17)" d="M3,0A3,3 0 1,1 0,-3A3,3 0 0,1 3,0Z" style="opacity: 1; stroke-width: 0px; fill: rgb(90, 2, 163); fill-opacity: 1;"/><path class="point" transform="translate(542.39,120.03)" d="M3,0A3,3 0 1,1 0,-3A3,3 0 0,1 3,0Z" style="opacity: 1; stroke-width: 0px; fill: rgb(118, 3, 167); fill-opacity: 1;"/><path class="point" transform="translate(581.45,139.84)" d="M3,0A3,3 0 1,1 0,-3A3,3 0 0,1 3,0Z" style="opacity: 1; stroke-width: 0px; fill: rgb(152, 21, 159); fill-opacity: 1;"/><path class="point" transform="translate(386.13,213.21)" d="M3,0A3,3 0 1,1 0,-3A3,3 0 0,1 3,0Z" style="opacity: 1; stroke-width: 0px; fill: rgb(110, 1, 167); fill-opacity: 1;"/><path class="point" transform="translate(503.32,166.56)" d="M3,0A3,3 0 1,1 0,-3A3,3 0 0,1 3,0Z" style="opacity: 1; stroke-width: 0px; fill: rgb(146, 18, 160); fill-opacity: 1;"/><path class="point" transform="translate(542.39,140.95)" d="M3,0A3,3 0 1,1 0,-3A3,3 0 0,1 3,0Z" style="opacity: 1; stroke-width: 0px; fill: rgb(120, 4, 167); fill-opacity: 1;"/><path class="point" transform="translate(308,260.18)" d="M3,0A3,3 0 1,1 0,-3A3,3 0 0,1 3,0Z" style="opacity: 1; stroke-width: 0px; fill: rgb(230, 110, 91); fill-opacity: 1;"/><path class="point" transform="translate(581.45,102.5)" d="M3,0A3,3 0 1,1 0,-3A3,3 0 0,1 3,0Z" style="opacity: 1; stroke-width: 0px; fill: rgb(85, 2, 162); fill-opacity: 1;"/><path class="point" transform="translate(386.13,190.54)" d="M3,0A3,3 0 1,1 0,-3A3,3 0 0,1 3,0Z" style="opacity: 1; stroke-width: 0px; fill: rgb(125, 7, 165); fill-opacity: 1;"/><path class="point" transform="translate(581.45,86.48)" d="M3,0A3,3 0 1,1 0,-3A3,3 0 0,1 3,0Z" style="opacity: 1; stroke-width: 0px; fill: rgb(37, 6, 145); fill-opacity: 1;"/><path class="point" transform="translate(542.39,134.79)" d="M3,0A3,3 0 1,1 0,-3A3,3 0 0,1 3,0Z" style="opacity: 1; stroke-width: 0px; fill: rgb(134, 12, 163); fill-opacity: 1;"/><path class="point" transform="translate(386.13,229.26)" d="M3,0A3,3 0 1,1 0,-3A3,3 0 0,1 3,0Z" style="opacity: 1; stroke-width: 0px; fill: rgb(162, 29, 154); fill-opacity: 1;"/><path class="point" transform="translate(308,219.89)" d="M3,0A3,3 0 1,1 0,-3A3,3 0 0,1 3,0Z" style="opacity: 1; stroke-width: 0px; fill: rgb(166, 33, 151); fill-opacity: 1;"/><path class="point" transform="translate(542.39,155.87)" d="M3,0A3,3 0 1,1 0,-3A3,3 0 0,1 3,0Z" style="opacity: 1; stroke-width: 0px; fill: rgb(153, 21, 159); fill-opacity: 1;"/><path class="point" transform="translate(542.39,115.82)" d="M3,0A3,3 0 1,1 0,-3A3,3 0 0,1 3,0Z" style="opacity: 1; stroke-width: 0px; fill: rgb(53, 4, 152); fill-opacity: 1;"/><path class="point" transform="translate(308,265.26)" d="M3,0A3,3 0 1,1 0,-3A3,3 0 0,1 3,0Z" style="opacity: 1; stroke-width: 0px; fill: rgb(234, 116, 86); fill-opacity: 1;"/><path class="point" transform="translate(542.39,113.14)" d="M3,0A3,3 0 1,1 0,-3A3,3 0 0,1 3,0Z" style="opacity: 1; stroke-width: 0px; fill: rgb(130, 10, 164); fill-opacity: 1;"/><path class="point" transform="translate(581.45,100.06)" d="M3,0A3,3 0 1,1 0,-3A3,3 0 0,1 3,0Z" style="opacity: 1; stroke-width: 0px; fill: rgb(115, 2, 168); fill-opacity: 1;"/><path class="point" transform="translate(542.39,134.84)" d="M3,0A3,3 0 1,1 0,-3A3,3 0 0,1 3,0Z" style="opacity: 1; stroke-width: 0px; fill: rgb(90, 2, 163); fill-opacity: 1;"/><path class="point" transform="translate(542.39,126.51)" d="M3,0A3,3 0 1,1 0,-3A3,3 0 0,1 3,0Z" style="opacity: 1; stroke-width: 0px; fill: rgb(57, 4, 154); fill-opacity: 1;"/><path class="point" transform="translate(347.06,214.81)" d="M3,0A3,3 0 1,1 0,-3A3,3 0 0,1 3,0Z" style="opacity: 1; stroke-width: 0px; fill: rgb(127, 8, 165); fill-opacity: 1;"/><path class="point" transform="translate(112.68,275.93)" d="M3,0A3,3 0 1,1 0,-3A3,3 0 0,1 3,0Z" style="opacity: 1; stroke-width: 0px; fill: rgb(240, 249, 33); fill-opacity: 1;"/><path class="point" transform="translate(581.45,38.56)" d="M3,0A3,3 0 1,1 0,-3A3,3 0 0,1 3,0Z" style="opacity: 1; stroke-width: 0px; fill: rgb(29, 7, 142); fill-opacity: 1;"/><path class="point" transform="translate(34.55,291.94)" d="M3,0A3,3 0 1,1 0,-3A3,3 0 0,1 3,0Z" style="opacity: 1; stroke-width: 0px; fill: rgb(212, 82, 111); fill-opacity: 1;"/><path class="point" transform="translate(581.45,86.46)" d="M3,0A3,3 0 1,1 0,-3A3,3 0 0,1 3,0Z" style="opacity: 1; stroke-width: 0px; fill: rgb(61, 4, 155); fill-opacity: 1;"/><path class="point" transform="translate(347.06,219.91)" d="M3,0A3,3 0 1,1 0,-3A3,3 0 0,1 3,0Z" style="opacity: 1; stroke-width: 0px; fill: rgb(144, 17, 161); fill-opacity: 1;"/><path class="point" transform="translate(503.32,146.22)" d="M3,0A3,3 0 1,1 0,-3A3,3 0 0,1 3,0Z" style="opacity: 1; stroke-width: 0px; fill: rgb(77, 3, 161); fill-opacity: 1;"/><path class="point" transform="translate(503.32,153.19)" d="M3,0A3,3 0 1,1 0,-3A3,3 0 0,1 3,0Z" style="opacity: 1; stroke-width: 0px; fill: rgb(122, 5, 166); fill-opacity: 1;"/><path class="point" transform="translate(581.45,73.11)" d="M3,0A3,3 0 1,1 0,-3A3,3 0 0,1 3,0Z" style="opacity: 1; stroke-width: 0px; fill: rgb(13, 8, 135); fill-opacity: 1;"/><path class="point" transform="translate(542.39,105.16)" d="M3,0A3,3 0 1,1 0,-3A3,3 0 0,1 3,0Z" style="opacity: 1; stroke-width: 0px; fill: rgb(79, 3, 161); fill-opacity: 1;"/><path class="point" transform="translate(503.32,129.21)" d="M3,0A3,3 0 1,1 0,-3A3,3 0 0,1 3,0Z" style="opacity: 1; stroke-width: 0px; fill: rgb(135, 12, 163); fill-opacity: 1;"/><path class="point" transform="translate(425.19,222.57)" d="M3,0A3,3 0 1,1 0,-3A3,3 0 0,1 3,0Z" style="opacity: 1; stroke-width: 0px; fill: rgb(195, 62, 128); fill-opacity: 1;"/><path class="point" transform="translate(542.39,140.37)" d="M3,0A3,3 0 1,1 0,-3A3,3 0 0,1 3,0Z" style="opacity: 1; stroke-width: 0px; fill: rgb(95, 2, 164); fill-opacity: 1;"/><path class="point" transform="translate(581.45,76.19)" d="M3,0A3,3 0 1,1 0,-3A3,3 0 0,1 3,0Z" style="opacity: 1; stroke-width: 0px; fill: rgb(38, 6, 146); fill-opacity: 1;"/><path class="point" transform="translate(542.39,112.75)" d="M3,0A3,3 0 1,1 0,-3A3,3 0 0,1 3,0Z" style="opacity: 1; stroke-width: 0px; fill: rgb(71, 3, 159); fill-opacity: 1;"/><path class="point" transform="translate(542.39,118.74)" d="M3,0A3,3 0 1,1 0,-3A3,3 0 0,1 3,0Z" style="opacity: 1; stroke-width: 0px; fill: rgb(66, 3, 157); fill-opacity: 1;"/><path class="point" transform="translate(542.39,141)" d="M3,0A3,3 0 1,1 0,-3A3,3 0 0,1 3,0Z" style="opacity: 1; stroke-width: 0px; fill: rgb(170, 36, 148); fill-opacity: 1;"/><path class="point" transform="translate(503.32,177.47)" d="M3,0A3,3 0 1,1 0,-3A3,3 0 0,1 3,0Z" style="opacity: 1; stroke-width: 0px; fill: rgb(136, 13, 163); fill-opacity: 1;"/><path class="point" transform="translate(112.68,278.89)" d="M3,0A3,3 0 1,1 0,-3A3,3 0 0,1 3,0Z" style="opacity: 1; stroke-width: 0px; fill: rgb(236, 119, 85); fill-opacity: 1;"/><path class="point" transform="translate(581.45,102.74)" d="M3,0A3,3 0 1,1 0,-3A3,3 0 0,1 3,0Z" style="opacity: 1; stroke-width: 0px; fill: rgb(125, 7, 165); fill-opacity: 1;"/><path class="point" transform="translate(542.39,138.06)" d="M3,0A3,3 0 1,1 0,-3A3,3 0 0,1 3,0Z" style="opacity: 1; stroke-width: 0px; fill: rgb(118, 3, 167); fill-opacity: 1;"/><path class="point" transform="translate(503.32,157.44)" d="M3,0A3,3 0 1,1 0,-3A3,3 0 0,1 3,0Z" style="opacity: 1; stroke-width: 0px; fill: rgb(107, 1, 167); fill-opacity: 1;"/><path class="point" transform="translate(73.61,300.25)" d="M3,0A3,3 0 1,1 0,-3A3,3 0 0,1 3,0Z" style="opacity: 1; stroke-width: 0px; fill: rgb(251, 163, 56); fill-opacity: 1;"/><path class="point" transform="translate(308,259.94)" d="M3,0A3,3 0 1,1 0,-3A3,3 0 0,1 3,0Z" style="opacity: 1; stroke-width: 0px; fill: rgb(214, 85, 109); fill-opacity: 1;"/><path class="point" transform="translate(581.45,115.81)" d="M3,0A3,3 0 1,1 0,-3A3,3 0 0,1 3,0Z" style="opacity: 1; stroke-width: 0px; fill: rgb(29, 7, 142); fill-opacity: 1;"/><path class="point" transform="translate(503.32,150.54)" d="M3,0A3,3 0 1,1 0,-3A3,3 0 0,1 3,0Z" style="opacity: 1; stroke-width: 0px; fill: rgb(136, 12, 163); fill-opacity: 1;"/><path class="point" transform="translate(425.19,230.96)" d="M3,0A3,3 0 1,1 0,-3A3,3 0 0,1 3,0Z" style="opacity: 1; stroke-width: 0px; fill: rgb(196, 64, 127); fill-opacity: 1;"/><path class="point" transform="translate(581.45,99.93)" d="M3,0A3,3 0 1,1 0,-3A3,3 0 0,1 3,0Z" style="opacity: 1; stroke-width: 0px; fill: rgb(100, 2, 165); fill-opacity: 1;"/><path class="point" transform="translate(542.39,113.14)" d="M3,0A3,3 0 1,1 0,-3A3,3 0 0,1 3,0Z" style="opacity: 1; stroke-width: 0px; fill: rgb(54, 4, 152); fill-opacity: 1;"/><path class="point" transform="translate(503.32,153.19)" d="M3,0A3,3 0 1,1 0,-3A3,3 0 0,1 3,0Z" style="opacity: 1; stroke-width: 0px; fill: rgb(105, 1, 166); fill-opacity: 1;"/><path class="point" transform="translate(542.39,105.13)" d="M3,0A3,3 0 1,1 0,-3A3,3 0 0,1 3,0Z" style="opacity: 1; stroke-width: 0px; fill: rgb(107, 1, 167); fill-opacity: 1;"/><path class="point" transform="translate(34.55,297.37)" d="M3,0A3,3 0 1,1 0,-3A3,3 0 0,1 3,0Z" style="opacity: 1; stroke-width: 0px; fill: rgb(252, 187, 45); fill-opacity: 1;"/><path class="point" transform="translate(503.32,162.78)" d="M3,0A3,3 0 1,1 0,-3A3,3 0 0,1 3,0Z" style="opacity: 1; stroke-width: 0px; fill: rgb(167, 34, 150); fill-opacity: 1;"/><path class="point" transform="translate(308,262.59)" d="M3,0A3,3 0 1,1 0,-3A3,3 0 0,1 3,0Z" style="opacity: 1; stroke-width: 0px; fill: rgb(238, 123, 82); fill-opacity: 1;"/><path class="point" transform="translate(542.39,107.8)" d="M3,0A3,3 0 1,1 0,-3A3,3 0 0,1 3,0Z" style="opacity: 1; stroke-width: 0px; fill: rgb(54, 4, 152); fill-opacity: 1;"/><path class="point" transform="translate(581.45,111.71)" d="M3,0A3,3 0 1,1 0,-3A3,3 0 0,1 3,0Z" style="opacity: 1; stroke-width: 0px; fill: rgb(74, 3, 160); fill-opacity: 1;"/><path class="point" transform="translate(581.45,91.82)" d="M3,0A3,3 0 1,1 0,-3A3,3 0 0,1 3,0Z" style="opacity: 1; stroke-width: 0px; fill: rgb(103, 2, 166); fill-opacity: 1;"/><path class="point" transform="translate(542.39,142.52)" d="M3,0A3,3 0 1,1 0,-3A3,3 0 0,1 3,0Z" style="opacity: 1; stroke-width: 0px; fill: rgb(192, 58, 131); fill-opacity: 1;"/><path class="point" transform="translate(581.45,96.96)" d="M3,0A3,3 0 1,1 0,-3A3,3 0 0,1 3,0Z" style="opacity: 1; stroke-width: 0px; fill: rgb(94, 2, 164); fill-opacity: 1;"/><path class="point" transform="translate(386.13,215.88)" d="M3,0A3,3 0 1,1 0,-3A3,3 0 0,1 3,0Z" style="opacity: 1; stroke-width: 0px; fill: rgb(169, 35, 149); fill-opacity: 1;"/><path class="point" transform="translate(581.45,20.04)" d="M3,0A3,3 0 1,1 0,-3A3,3 0 0,1 3,0Z" style="opacity: 1; stroke-width: 0px; fill: rgb(26, 7, 141); fill-opacity: 1;"/><path class="point" transform="translate(542.39,121.16)" d="M3,0A3,3 0 1,1 0,-3A3,3 0 0,1 3,0Z" style="opacity: 1; stroke-width: 0px; fill: rgb(102, 2, 166); fill-opacity: 1;"/><path class="point" transform="translate(542.39,91.82)" d="M3,0A3,3 0 1,1 0,-3A3,3 0 0,1 3,0Z" style="opacity: 1; stroke-width: 0px; fill: rgb(61, 4, 155); fill-opacity: 1;"/><path class="point" transform="translate(347.06,233.51)" d="M3,0A3,3 0 1,1 0,-3A3,3 0 0,1 3,0Z" style="opacity: 1; stroke-width: 0px; fill: rgb(159, 26, 156); fill-opacity: 1;"/><path class="point" transform="translate(386.13,233.24)" d="M3,0A3,3 0 1,1 0,-3A3,3 0 0,1 3,0Z" style="opacity: 1; stroke-width: 0px; fill: rgb(233, 114, 88); fill-opacity: 1;"/><path class="point" transform="translate(308,257.26)" d="M3,0A3,3 0 1,1 0,-3A3,3 0 0,1 3,0Z" style="opacity: 1; stroke-width: 0px; fill: rgb(199, 66, 124); fill-opacity: 1;"/><path class="point" transform="translate(425.19,227.89)" d="M3,0A3,3 0 1,1 0,-3A3,3 0 0,1 3,0Z" style="opacity: 1; stroke-width: 0px; fill: rgb(216, 88, 107); fill-opacity: 1;"/><path class="point" transform="translate(581.45,75.79)" d="M3,0A3,3 0 1,1 0,-3A3,3 0 0,1 3,0Z" style="opacity: 1; stroke-width: 0px; fill: rgb(34, 6, 144); fill-opacity: 1;"/><path class="point" transform="translate(581.45,19.75)" d="M3,0A3,3 0 1,1 0,-3A3,3 0 0,1 3,0Z" style="opacity: 1; stroke-width: 0px; fill: rgb(37, 6, 145); fill-opacity: 1;"/><path class="point" transform="translate(386.13,249.91)" d="M3,0A3,3 0 1,1 0,-3A3,3 0 0,1 3,0Z" style="opacity: 1; stroke-width: 0px; fill: rgb(252, 183, 47); fill-opacity: 1;"/><path class="point" transform="translate(581.45,127.87)" d="M3,0A3,3 0 1,1 0,-3A3,3 0 0,1 3,0Z" style="opacity: 1; stroke-width: 0px; fill: rgb(111, 1, 167); fill-opacity: 1;"/><path class="point" transform="translate(308,251.46)" d="M3,0A3,3 0 1,1 0,-3A3,3 0 0,1 3,0Z" style="opacity: 1; stroke-width: 0px; fill: rgb(133, 11, 163); fill-opacity: 1;"/><path class="point" transform="translate(347.06,230.02)" d="M3,0A3,3 0 1,1 0,-3A3,3 0 0,1 3,0Z" style="opacity: 1; stroke-width: 0px; fill: rgb(160, 27, 155); fill-opacity: 1;"/><path class="point" transform="translate(581.45,138.77)" d="M3,0A3,3 0 1,1 0,-3A3,3 0 0,1 3,0Z" style="opacity: 1; stroke-width: 0px; fill: rgb(149, 20, 160); fill-opacity: 1;"/><path class="point" transform="translate(34.55,295.94)" d="M3,0A3,3 0 1,1 0,-3A3,3 0 0,1 3,0Z" style="opacity: 1; stroke-width: 0px; fill: rgb(218, 91, 104); fill-opacity: 1;"/><path class="point" transform="translate(542.39,126.75)" d="M3,0A3,3 0 1,1 0,-3A3,3 0 0,1 3,0Z" style="opacity: 1; stroke-width: 0px; fill: rgb(138, 14, 162); fill-opacity: 1;"/><path class="point" transform="translate(581.45,107.81)" d="M3,0A3,3 0 1,1 0,-3A3,3 0 0,1 3,0Z" style="opacity: 1; stroke-width: 0px; fill: rgb(143, 16, 161); fill-opacity: 1;"/><path class="point" transform="translate(308,275.94)" d="M3,0A3,3 0 1,1 0,-3A3,3 0 0,1 3,0Z" style="opacity: 1; stroke-width: 0px; fill: rgb(238, 123, 82); fill-opacity: 1;"/><path class="point" transform="translate(386.13,207.88)" d="M3,0A3,3 0 1,1 0,-3A3,3 0 0,1 3,0Z" style="opacity: 1; stroke-width: 0px; fill: rgb(172, 38, 147); fill-opacity: 1;"/><path class="point" transform="translate(542.39,147.84)" d="M3,0A3,3 0 1,1 0,-3A3,3 0 0,1 3,0Z" style="opacity: 1; stroke-width: 0px; fill: rgb(168, 34, 149); fill-opacity: 1;"/><path class="point" transform="translate(542.39,154.94)" d="M3,0A3,3 0 1,1 0,-3A3,3 0 0,1 3,0Z" style="opacity: 1; stroke-width: 0px; fill: rgb(112, 1, 168); fill-opacity: 1;"/><path class="point" transform="translate(112.68,262.59)" d="M3,0A3,3 0 1,1 0,-3A3,3 0 0,1 3,0Z" style="opacity: 1; stroke-width: 0px; fill: rgb(157, 24, 158); fill-opacity: 1;"/><path class="point" transform="translate(503.32,177.19)" d="M3,0A3,3 0 1,1 0,-3A3,3 0 0,1 3,0Z" style="opacity: 1; stroke-width: 0px; fill: rgb(165, 32, 152); fill-opacity: 1;"/><path class="point" transform="translate(34.55,286.61)" d="M3,0A3,3 0 1,1 0,-3A3,3 0 0,1 3,0Z" style="opacity: 1; stroke-width: 0px; fill: rgb(235, 118, 85); fill-opacity: 1;"/><path class="point" transform="translate(503.32,129.46)" d="M3,0A3,3 0 1,1 0,-3A3,3 0 0,1 3,0Z" style="opacity: 1; stroke-width: 0px; fill: rgb(110, 1, 167); fill-opacity: 1;"/><path class="point" transform="translate(581.45,97.14)" d="M3,0A3,3 0 1,1 0,-3A3,3 0 0,1 3,0Z" style="opacity: 1; stroke-width: 0px; fill: rgb(69, 3, 158); fill-opacity: 1;"/><path class="point" transform="translate(542.39,140.55)" d="M3,0A3,3 0 1,1 0,-3A3,3 0 0,1 3,0Z" style="opacity: 1; stroke-width: 0px; fill: rgb(137, 13, 163); fill-opacity: 1;"/><path class="point" transform="translate(34.55,281.27)" d="M3,0A3,3 0 1,1 0,-3A3,3 0 0,1 3,0Z" style="opacity: 1; stroke-width: 0px; fill: rgb(181, 47, 140); fill-opacity: 1;"/><path class="point" transform="translate(503.32,139.87)" d="M3,0A3,3 0 1,1 0,-3A3,3 0 0,1 3,0Z" style="opacity: 1; stroke-width: 0px; fill: rgb(115, 2, 168); fill-opacity: 1;"/><path class="point" transform="translate(503.32,147.31)" d="M3,0A3,3 0 1,1 0,-3A3,3 0 0,1 3,0Z" style="opacity: 1; stroke-width: 0px; fill: rgb(100, 2, 165); fill-opacity: 1;"/><path class="point" transform="translate(112.68,225.27)" d="M3,0A3,3 0 1,1 0,-3A3,3 0 0,1 3,0Z" style="opacity: 1; stroke-width: 0px; fill: rgb(183, 49, 139); fill-opacity: 1;"/><path class="point" transform="translate(425.19,179.86)" d="M3,0A3,3 0 1,1 0,-3A3,3 0 0,1 3,0Z" style="opacity: 1; stroke-width: 0px; fill: rgb(122, 5, 166); fill-opacity: 1;"/><path class="point" transform="translate(425.19,210.54)" d="M3,0A3,3 0 1,1 0,-3A3,3 0 0,1 3,0Z" style="opacity: 1; stroke-width: 0px; fill: rgb(132, 11, 164); fill-opacity: 1;"/></g><g class="text"/></g><g class="trace scatter trace400d4b" style="stroke-miterlimit: 2; opacity: 1;"><g class="fills"/><g class="errorbars"/><g class="lines"><path class="js-line" d="M34.55,294.61L112.68,282.69L112.68,282.69L308,237.35L347.06,224.66L347.06,224.66L386.13,210.4L425.19,194.37L425.19,194.37L503.32,156.12L542.39,133.38L542.39,133.38L581.45,107.82" style="vector-effect: non-scaling-stroke; fill: none; stroke: rgb(239, 85, 59); stroke-opacity: 1; stroke-width: 2px; opacity: 1;"/></g><g class="points"/><g class="text"/></g><g class="trace scatter tracef7403c" style="stroke-miterlimit: 2; opacity: 1;"><g class="fills"/><g class="errorbars"/><g class="lines"/><g class="points"><path class="point" transform="translate(386.13,220.7)" d="M7.5,0A7.5,7.5 0 1,1 0,-7.5A7.5,7.5 0 0,1 7.5,0Z" style="opacity: 1; stroke-width: 0px; fill: rgb(0, 128, 0); fill-opacity: 1;"/></g><g class="text"><g class="textpoint" transform="translate(-10.375,-13.375)"><text x="386.13" y="220.7" text-anchor="end" style="font-family: 'Open Sans', verdana, arial, sans-serif; font-size: 12px; fill: rgb(42, 63, 95); fill-opacity: 1; white-space: pre;">Estimated price = 44.7 k</text></g></g></g><g class="trace scatter trace8ab736" style="stroke-miterlimit: 2; opacity: 1;"><g class="fills"/><g class="errorbars"/><g class="lines"/><g class="points"><path class="point" transform="translate(386.13,220.7)" d="M7.5,0A7.5,7.5 0 1,1 0,-7.5A7.5,7.5 0 0,1 7.5,0Z" style="opacity: 1; stroke-width: 0px; fill: rgb(0, 128, 0); fill-opacity: 1;"/></g><g class="text"/></g></g></g><g class="overplot"/><path class="xlines-above crisp" d="M0,0" style="fill: none;"/><path class="ylines-above crisp" d="M0,0" style="fill: none;"/><g class="overlines-above"/><g class="xaxislayer-above"><g class="xtick"><text text-anchor="middle" x="0" y="433" transform="translate(114.55,0)" style="font-family: 'Open Sans', verdana, arial, sans-serif; font-size: 12px; fill: rgb(42, 63, 95); fill-opacity: 1; white-space: pre; opacity: 1;">2006</text></g><g class="xtick"><text text-anchor="middle" x="0" y="433" style="font-family: 'Open Sans', verdana, arial, sans-serif; font-size: 12px; fill: rgb(42, 63, 95); fill-opacity: 1; white-space: pre; opacity: 1;" transform="translate(192.68,0)">2008</text></g><g class="xtick"><text text-anchor="middle" x="0" y="433" style="font-family: 'Open Sans', verdana, arial, sans-serif; font-size: 12px; fill: rgb(42, 63, 95); fill-opacity: 1; white-space: pre; opacity: 1;" transform="translate(270.81,0)">2010</text></g><g class="xtick"><text text-anchor="middle" x="0" y="433" style="font-family: 'Open Sans', verdana, arial, sans-serif; font-size: 12px; fill: rgb(42, 63, 95); fill-opacity: 1; white-space: pre; opacity: 1;" transform="translate(348.94,0)">2012</text></g><g class="xtick"><text text-anchor="middle" x="0" y="433" style="font-family: 'Open Sans', verdana, arial, sans-serif; font-size: 12px; fill: rgb(42, 63, 95); fill-opacity: 1; white-space: pre; opacity: 1;" transform="translate(427.06,0)">2014</text></g><g class="xtick"><text text-anchor="middle" x="0" y="433" style="font-family: 'Open Sans', verdana, arial, sans-serif; font-size: 12px; fill: rgb(42, 63, 95); fill-opacity: 1; white-space: pre; opacity: 1;" transform="translate(505.19,0)">2016</text></g><g class="xtick"><text text-anchor="middle" x="0" y="433" style="font-family: 'Open Sans', verdana, arial, sans-serif; font-size: 12px; fill: rgb(42, 63, 95); fill-opacity: 1; white-space: pre; opacity: 1;" transform="translate(583.3199999999999,0)">2018</text></g><g class="xtick"><text text-anchor="middle" x="0" y="433" style="font-family: 'Open Sans', verdana, arial, sans-serif; font-size: 12px; fill: rgb(42, 63, 95); fill-opacity: 1; white-space: pre; opacity: 1;" transform="translate(661.45,0)">2020</text></g></g><g class="yaxislayer-above"><g class="ytick"><text text-anchor="end" x="79" y="4.199999999999999" transform="translate(0,386.6)" style="font-family: 'Open Sans', verdana, arial, sans-serif; font-size: 12px; fill: rgb(42, 63, 95); fill-opacity: 1; white-space: pre; opacity: 1;">20k</text></g><g class="ytick"><text text-anchor="end" x="79" y="4.199999999999999" style="font-family: 'Open Sans', verdana, arial, sans-serif; font-size: 12px; fill: rgb(42, 63, 95); fill-opacity: 1; white-space: pre; opacity: 1;" transform="translate(0,333.23)">40k</text></g><g class="ytick"><text text-anchor="end" x="79" y="4.199999999999999" style="font-family: 'Open Sans', verdana, arial, sans-serif; font-size: 12px; fill: rgb(42, 63, 95); fill-opacity: 1; white-space: pre; opacity: 1;" transform="translate(0,279.85)">60k</text></g><g class="ytick"><text text-anchor="end" x="79" y="4.199999999999999" style="font-family: 'Open Sans', verdana, arial, sans-serif; font-size: 12px; fill: rgb(42, 63, 95); fill-opacity: 1; white-space: pre; opacity: 1;" transform="translate(0,226.48000000000002)">80k</text></g><g class="ytick"><text text-anchor="end" x="79" y="4.199999999999999" style="font-family: 'Open Sans', verdana, arial, sans-serif; font-size: 12px; fill: rgb(42, 63, 95); fill-opacity: 1; white-space: pre; opacity: 1;" transform="translate(0,173.11)">100k</text></g><g class="ytick"><text text-anchor="end" x="79" y="4.199999999999999" style="font-family: 'Open Sans', verdana, arial, sans-serif; font-size: 12px; fill: rgb(42, 63, 95); fill-opacity: 1; white-space: pre; opacity: 1;" transform="translate(0,119.74)">120k</text></g></g><g class="overaxes-above"/></g></g><g class="polarlayer"/><g class="smithlayer"/><g class="ternarylayer"/><g class="geolayer"/><g class="funnelarealayer"/><g class="pielayer"/><g class="iciclelayer"/><g class="treemaplayer"/><g class="sunburstlayer"/><g class="glimages"/><defs id="topdefs-0b6524"><g class="clips"/></defs><g class="layer-above"><g class="imagelayer"/><g class="shapelayer"/></g><g class="infolayer"><g class="cbcoloraxis colorbar" transform="translate(80,100)"><rect class="cbbg" x="628" y="0" width="80" height="320" style="fill: rgb(0, 0, 0); fill-opacity: 0; stroke: rgb(68, 68, 68); stroke-opacity: 1; stroke-width: 0;"/><g class="cbfills" transform="translate(0,32)"><rect class="cbfill gradient_filled" x="638" y="0" width="30" height="278" style="fill: url('#g0b6524-cbcoloraxis');"/></g><g class="cblines" transform="translate(0,32)"/><g class="cbaxis crisp" transform="translate(0,-100)"><g class="ycbcoloraxistick"><text text-anchor="start" x="670.9" y="4.199999999999999" transform="translate(0,376.33000000000004)" style="font-family: 'Open Sans', verdana, arial, sans-serif; font-size: 12px; fill: rgb(42, 63, 95); fill-opacity: 1; white-space: pre; opacity: 1;">20k</text></g><g class="ycbcoloraxistick"><text text-anchor="start" x="670.9" y="4.199999999999999" style="font-family: 'Open Sans', verdana, arial, sans-serif; font-size: 12px; fill: rgb(42, 63, 95); fill-opacity: 1; white-space: pre; opacity: 1;" transform="translate(0,339.02)">40k</text></g><g class="ycbcoloraxistick"><text text-anchor="start" x="670.9" y="4.199999999999999" style="font-family: 'Open Sans', verdana, arial, sans-serif; font-size: 12px; fill: rgb(42, 63, 95); fill-opacity: 1; white-space: pre; opacity: 1;" transform="translate(0,301.72)">60k</text></g><g class="ycbcoloraxistick"><text text-anchor="start" x="670.9" y="4.199999999999999" style="font-family: 'Open Sans', verdana, arial, sans-serif; font-size: 12px; fill: rgb(42, 63, 95); fill-opacity: 1; white-space: pre; opacity: 1;" transform="translate(0,264.41999999999996)">80k</text></g><g class="ycbcoloraxistick"><text text-anchor="start" x="670.9" y="4.199999999999999" style="font-family: 'Open Sans', verdana, arial, sans-serif; font-size: 12px; fill: rgb(42, 63, 95); fill-opacity: 1; white-space: pre; opacity: 1;" transform="translate(0,227.12)">100k</text></g><g class="ycbcoloraxistick"><text text-anchor="start" x="670.9" y="4.199999999999999" style="font-family: 'Open Sans', verdana, arial, sans-serif; font-size: 12px; fill: rgb(42, 63, 95); fill-opacity: 1; white-space: pre; opacity: 1;" transform="translate(0,189.82)">120k</text></g><g class="ycbcoloraxistick"><text text-anchor="start" x="670.9" y="4.199999999999999" style="font-family: 'Open Sans', verdana, arial, sans-serif; font-size: 12px; fill: rgb(42, 63, 95); fill-opacity: 1; white-space: pre; opacity: 1;" transform="translate(0,152.52)">140k</text></g></g><g class="cbtitleunshift" transform="translate(-80,-100)"><g class="cbtitle" transform=""><text class="ycbcoloraxistitle" x="718.32" y="123.5" text-anchor="start" style="font-family: 'Open Sans', verdana, arial, sans-serif; font-size: 14px; fill: rgb(42, 63, 95); opacity: 1; font-weight: normal; white-space: pre;">mileage</text></g></g><rect class="cboutline" x="638" y="32" width="30" height="278" style="stroke: rgb(68, 68, 68); stroke-opacity: 1; fill: none; stroke-width: 0;"/></g><g class="g-gtitle"><text class="gtitle" x="40" y="50" text-anchor="start" dy="0em" style="font-family: 'Open Sans', verdana, arial, sans-serif; font-size: 17px; fill: rgb(42, 63, 95); opacity: 1; font-weight: normal; white-space: pre;">Price of bmw-m5 by mileage and year</text></g><g class="g-xtitle"><text class="xtitle" x="388" y="460.3" text-anchor="middle" style="font-family: 'Open Sans', verdana, arial, sans-serif; font-size: 14px; fill: rgb(42, 63, 95); opacity: 1; font-weight: normal; white-space: pre;">year</text></g><g class="g-ytitle"><text class="ytitle" transform="rotate(-90,24.200000000000003,260)" x="24.200000000000003" y="260" text-anchor="middle" style="font-family: 'Open Sans', verdana, arial, sans-serif; font-size: 14px; fill: rgb(42, 63, 95); opacity: 1; font-weight: normal; white-space: pre;">price</text></g></g></svg>